# xmcd
#
# Track frame offsets:
# 150
# 20015
# 35587
# 55422
# 66737
# 90028
# 107546
# 128998
# 173670
# 195941
# 215608
# 234728
# 268211
# 290008
# 307880
# 325893
#
# Disc length: 4666 seconds
#
# Revision: 0
# Processed by: cddbd v1.5.1PL0 Copyright (c) Steve Scherf et al.
# Submitted via: Audion 3.0.2 (http://www.panic.com/audion/)
#
DISCID=ea123810
DTITLE=fetih - Kar>fl>k pop
DYEAR=1900
DGENRE=
TTITLE0=p 1
TTITLE1=p2
TTITLE2=p 3
TTITLE3=p 4
TTITLE4=p 5
TTITLE5=p 6
TTITLE6=p 7
TTITLE7=p 8
TTITLE8=p 9
TTITLE9=p 10
TTITLE10=p 11
TTITLE11=p 12
TTITLE12=p 13
TTITLE13=p 14
TTITLE14=p 15
TTITLE15=p 16
EXTD=
EXTT0=
EXTT1=
EXTT2=
EXTT3=
EXTT4=
EXTT5=
EXTT6=
EXTT7=
EXTT8=
EXTT9=
EXTT10=
EXTT11=
EXTT12=
EXTT13=
EXTT14=
EXTT15=
PLAYORDER=
